<mxfile host="Electron" modified="2024-06-07T18:09:38.702Z" agent="Mozilla/5.0 (Macintosh; Intel Mac OS X 10_15_7) AppleWebKit/537.36 (KHTML, like Gecko) draw.io/24.4.13 Chrome/124.0.6367.207 Electron/30.0.6 Safari/537.36" etag="Vk-gL7z3b5f8RHMQ08ew" version="24.4.13" type="device">
  <diagram name="Страница — 1" id="odj48SOeiG__KXEs9iDG">
    <mxGraphModel dx="816" dy="530" grid="1" gridSize="10" guides="1" tooltips="1" connect="1" arrows="1" fold="1" page="1" pageScale="1" pageWidth="827" pageHeight="1169" math="0" shadow="0">
      <root>
        <mxCell id="0" />
        <mxCell id="1" parent="0" />
        <mxCell id="lswf5cLPki-qcaa0VPuv-52" value="" style="ellipse;whiteSpace=wrap;html=1;fontSize=18;fillColor=strokeColor;fontColor=#ffffff;rounded=1;" parent="1" vertex="1">
          <mxGeometry x="40" y="40" width="40" height="40" as="geometry" />
        </mxCell>
        <mxCell id="lswf5cLPki-qcaa0VPuv-61" value="" style="edgeStyle=none;html=1;endArrow=open;endSize=12;strokeWidth=3;verticalAlign=bottom;rounded=1;" parent="1" source="lswf5cLPki-qcaa0VPuv-52" target="9Le3yZqcACcVOzR-LwcD-1" edge="1">
          <mxGeometry x="0.0053" width="160" relative="1" as="geometry">
            <mxPoint x="410" y="330" as="sourcePoint" />
            <mxPoint x="120" y="60" as="targetPoint" />
            <mxPoint as="offset" />
          </mxGeometry>
        </mxCell>
        <mxCell id="9Le3yZqcACcVOzR-LwcD-1" value="Location determination" style="shape=rect;rounded=1;html=1;whiteSpace=wrap;align=center;" vertex="1" parent="1">
          <mxGeometry x="120" y="40" width="100" height="40" as="geometry" />
        </mxCell>
        <mxCell id="9Le3yZqcACcVOzR-LwcD-2" value="login_new_character found /pressKey 4" style="edgeStyle=none;html=1;endArrow=open;endSize=12;strokeWidth=3;verticalAlign=bottom;rounded=0;" edge="1" parent="1" source="9Le3yZqcACcVOzR-LwcD-1">
          <mxGeometry width="160" relative="1" as="geometry">
            <mxPoint x="330" y="280" as="sourcePoint" />
            <mxPoint x="520" y="60" as="targetPoint" />
          </mxGeometry>
        </mxCell>
        <mxCell id="9Le3yZqcACcVOzR-LwcD-3" value="Galaxy and Super Proxy found&amp;nbsp;/click on Galaxy" style="edgeStyle=none;html=1;endArrow=open;endSize=12;strokeWidth=3;verticalAlign=bottom;rounded=0;" edge="1" parent="1" source="9Le3yZqcACcVOzR-LwcD-1" target="9Le3yZqcACcVOzR-LwcD-1">
          <mxGeometry x="-0.0002" width="160" relative="1" as="geometry">
            <mxPoint x="330" y="240" as="sourcePoint" />
            <mxPoint x="400" y="160" as="targetPoint" />
            <Array as="points">
              <mxPoint x="220" y="20" />
            </Array>
            <mxPoint as="offset" />
          </mxGeometry>
        </mxCell>
        <mxCell id="9Le3yZqcACcVOzR-LwcD-5" value="&lt;div&gt;Galaxy ImageButton found&amp;nbsp;/click&lt;/div&gt;" style="edgeStyle=none;html=1;endArrow=open;endSize=12;strokeWidth=3;verticalAlign=bottom;rounded=0;" edge="1" parent="1" source="9Le3yZqcACcVOzR-LwcD-1" target="9Le3yZqcACcVOzR-LwcD-7">
          <mxGeometry x="0.0024" width="160" relative="1" as="geometry">
            <mxPoint x="330" y="240" as="sourcePoint" />
            <mxPoint x="230" y="210" as="targetPoint" />
            <mxPoint as="offset" />
          </mxGeometry>
        </mxCell>
        <mxCell id="9Le3yZqcACcVOzR-LwcD-7" value="Looking for&amp;nbsp;&lt;span style=&quot;background-color: initial;&quot;&gt;menulist&lt;/span&gt;" style="shape=rect;rounded=1;html=1;whiteSpace=wrap;align=center;" vertex="1" parent="1">
          <mxGeometry x="340" y="120" width="100" height="40" as="geometry" />
        </mxCell>
        <mxCell id="9Le3yZqcACcVOzR-LwcD-8" value="menulist found" style="edgeStyle=none;html=1;endArrow=open;endSize=12;strokeWidth=3;verticalAlign=bottom;rounded=0;" edge="1" parent="1" source="9Le3yZqcACcVOzR-LwcD-7" target="9Le3yZqcACcVOzR-LwcD-9">
          <mxGeometry width="160" relative="1" as="geometry">
            <mxPoint x="260" y="220" as="sourcePoint" />
            <mxPoint x="260" y="320" as="targetPoint" />
          </mxGeometry>
        </mxCell>
        <mxCell id="9Le3yZqcACcVOzR-LwcD-9" value="Looking for the Exit button" style="shape=rect;rounded=1;html=1;whiteSpace=wrap;align=center;" vertex="1" parent="1">
          <mxGeometry x="340" y="240" width="100" height="40" as="geometry" />
        </mxCell>
        <mxCell id="9Le3yZqcACcVOzR-LwcD-11" value="swipe down [timeout] /swipe 510 1150 510 150" style="edgeStyle=none;html=1;endArrow=open;endSize=12;strokeWidth=3;verticalAlign=bottom;rounded=0;" edge="1" parent="1" source="9Le3yZqcACcVOzR-LwcD-9" target="9Le3yZqcACcVOzR-LwcD-9">
          <mxGeometry width="160" relative="1" as="geometry">
            <mxPoint x="500" y="290" as="sourcePoint" />
            <mxPoint x="500" y="330" as="targetPoint" />
            <Array as="points">
              <mxPoint x="440" y="220" />
            </Array>
          </mxGeometry>
        </mxCell>
        <mxCell id="9Le3yZqcACcVOzR-LwcD-13" value="Exit button found /click" style="edgeStyle=none;html=1;endArrow=open;endSize=12;strokeWidth=3;verticalAlign=bottom;rounded=0;" edge="1" parent="1" source="9Le3yZqcACcVOzR-LwcD-9" target="9Le3yZqcACcVOzR-LwcD-1">
          <mxGeometry width="160" relative="1" as="geometry">
            <mxPoint x="110" y="230" as="sourcePoint" />
            <mxPoint x="410" y="150" as="targetPoint" />
            <Array as="points">
              <mxPoint x="170" y="260" />
            </Array>
          </mxGeometry>
        </mxCell>
      </root>
    </mxGraphModel>
  </diagram>
</mxfile>
